<mxfile host="app.diagrams.net" modified="2024-03-02T03:34:39.322Z" agent="Mozilla/5.0 (Macintosh; Intel Mac OS X 10_15_7) AppleWebKit/537.36 (KHTML, like Gecko) Chrome/122.0.0.0 Safari/537.36" version="24.0.0" etag="SWi9V8kZnyTRVs8At8Ev" type="github">
  <diagram name="第 1 页" id="BQzZ52Y8nHvfTutCsm3a">
    <mxGraphModel>
      <root>
        <mxCell id="0" />
        <mxCell id="1" parent="0" />
      </root>
    </mxGraphModel>
  </diagram>
</mxfile>
